<svg width="138" height="48" viewBox="0 0 138 48" fill="none" xmlns="http://www.w3.org/2000/svg">
<path d="M35.0795 16.2727V9.90909H60.3636V16.2727H51.6136V39H43.8295V16.2727H35.0795ZM70.7969 39.3977C68.4295 39.3977 66.4029 38.929 64.7173 37.9915C63.0317 37.0445 61.7391 35.7282 60.8395 34.0426C59.9399 32.3475 59.4901 30.3826 59.4901 28.1477C59.4901 25.9129 59.9399 23.9527 60.8395 22.267C61.7391 20.572 63.0317 19.2557 64.7173 18.3182C66.4029 17.3712 68.4295 16.8977 70.7969 16.8977C73.1643 16.8977 75.1908 17.3712 76.8764 18.3182C78.562 19.2557 79.8546 20.572 80.7543 22.267C81.6539 23.9527 82.1037 25.9129 82.1037 28.1477C82.1037 30.3826 81.6539 32.3475 80.7543 34.0426C79.8546 35.7282 78.562 37.0445 76.8764 37.9915C75.1908 38.929 73.1643 39.3977 70.7969 39.3977ZM70.8537 33.6023C71.5166 33.6023 72.0895 33.3797 72.5724 32.9347C73.0554 32.4896 73.4295 31.8551 73.6946 31.0312C73.9598 30.2074 74.0923 29.2273 74.0923 28.0909C74.0923 26.9451 73.9598 25.965 73.6946 25.1506C73.4295 24.3267 73.0554 23.6922 72.5724 23.2472C72.0895 22.8021 71.5166 22.5795 70.8537 22.5795C70.1529 22.5795 69.5516 22.8021 69.0497 23.2472C68.5478 23.6922 68.1643 24.3267 67.8991 25.1506C67.634 25.965 67.5014 26.9451 67.5014 28.0909C67.5014 29.2273 67.634 30.2074 67.8991 31.0312C68.1643 31.8551 68.5478 32.4896 69.0497 32.9347C69.5516 33.3797 70.1529 33.6023 70.8537 33.6023Z" fill="#4EA8DE"/>
<path d="M96.3651 39H85.1719V9.90909H96.2514C99.2438 9.90909 101.829 10.4915 104.007 11.6562C106.195 12.8116 107.88 14.4782 109.064 16.6562C110.257 18.8248 110.854 21.4242 110.854 24.4545C110.854 27.4848 110.262 30.089 109.078 32.267C107.894 34.4356 106.218 36.1023 104.05 37.267C101.881 38.4223 99.3196 39 96.3651 39ZM93.0696 32.2955H96.081C97.5204 32.2955 98.7467 32.0634 99.7599 31.5994C100.783 31.1354 101.559 30.3352 102.089 29.1989C102.629 28.0625 102.899 26.4811 102.899 24.4545C102.899 22.428 102.625 20.8466 102.075 19.7102C101.536 18.5739 100.74 17.7737 99.6889 17.3097C98.6473 16.8456 97.3688 16.6136 95.8537 16.6136H93.0696V32.2955ZM125.133 39.3977C122.765 39.3977 120.739 38.929 119.053 37.9915C117.368 37.0445 116.075 35.7282 115.175 34.0426C114.276 32.3475 113.826 30.3826 113.826 28.1477C113.826 25.9129 114.276 23.9527 115.175 22.267C116.075 20.572 117.368 19.2557 119.053 18.3182C120.739 17.3712 122.765 16.8977 125.133 16.8977C127.5 16.8977 129.527 17.3712 131.212 18.3182C132.898 19.2557 134.191 20.572 135.09 22.267C135.99 23.9527 136.44 25.9129 136.44 28.1477C136.44 30.3826 135.99 32.3475 135.09 34.0426C134.191 35.7282 132.898 37.0445 131.212 37.9915C129.527 38.929 127.5 39.3977 125.133 39.3977ZM125.19 33.6023C125.853 33.6023 126.425 33.3797 126.908 32.9347C127.391 32.4896 127.765 31.8551 128.031 31.0312C128.296 30.2074 128.428 29.2273 128.428 28.0909C128.428 26.9451 128.296 25.965 128.031 25.1506C127.765 24.3267 127.391 23.6922 126.908 23.2472C126.425 22.8021 125.853 22.5795 125.19 22.5795C124.489 22.5795 123.888 22.8021 123.386 23.2472C122.884 23.6922 122.5 24.3267 122.235 25.1506C121.97 25.965 121.837 26.9451 121.837 28.0909C121.837 29.2273 121.97 30.2074 122.235 31.0312C122.5 31.8551 122.884 32.4896 123.386 32.9347C123.888 33.3797 124.489 33.6023 125.19 33.6023Z" fill="#5E60CE"/>
<g clip-path="url(#clip0_12_482)">
<path d="M11.0215 12.933C14.1472 16.9011 15.8158 21.7944 15.7553 26.8155V28.0141L16.7865 28.6416C18.119 29.4482 19.1127 30.6993 19.5866 32.1669C19.1705 31.8605 18.7352 31.5803 18.2833 31.3278L15.5333 29.7838L15.0391 32.9001C14.9963 33.1755 14.9389 33.4485 14.8672 33.718H7.16151C7.04692 33.3655 6.95382 33.0129 6.86789 32.6463L6.24484 29.8261L3.70968 31.2362C3.28615 31.473 2.87723 31.7344 2.48507 32.0188C2.96824 30.5682 3.94123 29.3242 5.24224 28.4935L6.22336 27.866V26.7521C6.24106 21.7513 7.92967 16.8952 11.0287 12.933H11.0215ZM11.0287 10C10.868 10.0004 10.7128 10.058 10.5918 10.1622L10.5274 10.2186C6.39778 14.7656 4.10466 20.6454 4.08208 26.745C2.32967 27.8643 1.03251 29.5543 0.417263 31.5197C-0.197979 33.485 -0.0921719 35.6007 0.716194 37.4971C1.56776 35.6455 2.99131 34.1058 4.7839 33.0975C4.96368 33.8642 5.2031 34.6161 5.50005 35.3467C5.53771 35.4871 5.62118 35.6114 5.73763 35.7006C5.85408 35.7898 5.99706 35.8388 6.14458 35.8402H16.0847C16.2852 35.8402 16.4857 35.6498 16.586 35.3537C16.8758 34.6592 17.0778 33.9322 17.1875 33.1892C18.9836 34.1932 20.4083 35.7342 21.2553 37.5887C22.1124 35.7017 22.2451 33.5727 21.6287 31.5967C21.0124 29.6206 19.6888 27.9319 17.9037 26.8437C17.9745 20.7082 15.6935 14.7718 11.5157 10.2186C11.4535 10.1501 11.3773 10.0952 11.2922 10.0576C11.2071 10.0199 11.1149 10.0003 11.0215 10H11.0287Z" fill="#4EA8DE"/>
<path d="M11.0216 26.1598C10.4715 26.1598 9.93376 25.9995 9.47611 25.699C9.01846 25.3986 8.6614 24.9715 8.44993 24.4716C8.23847 23.9716 8.18206 23.4213 8.28782 22.8898C8.39358 22.3584 8.65678 21.8697 9.04423 21.4853C9.43169 21.1009 9.92606 20.838 10.465 20.7298C11.004 20.6216 11.5634 20.6729 12.0728 20.8773C12.5822 21.0816 13.0188 21.4298 13.3275 21.8781C13.6361 22.3263 13.8031 22.8545 13.8074 23.396C13.8159 23.7469 13.7542 24.0961 13.6256 24.4235C13.4971 24.751 13.3043 25.0503 13.0582 25.3043C12.8121 25.5583 12.5176 25.7622 12.1915 25.9041C11.8654 26.0461 11.5141 26.1234 11.1576 26.1316C11.1126 26.1387 11.0666 26.1387 11.0216 26.1316V26.1598Z" fill="#4EA8DE"/>
<path d="M14.8959 37.5958C14.7167 37.5901 14.5382 37.6198 14.3708 37.683C14.2034 37.7462 14.0505 37.8416 13.9211 37.9638C13.7917 38.086 13.6884 38.2323 13.6172 38.3943C13.546 38.5563 13.5084 38.7307 13.5066 38.9072V43.067C13.5066 43.4297 13.653 43.7776 13.9135 44.0342C14.1741 44.2907 14.5274 44.4348 14.8959 44.4348C15.2644 44.4348 15.6178 44.2907 15.8783 44.0342C16.1389 43.7776 16.2852 43.4297 16.2852 43.067V38.9636C16.291 38.7877 16.2611 38.6126 16.1973 38.4482C16.1336 38.2839 16.0372 38.1337 15.9139 38.0064C15.7906 37.879 15.6428 37.7772 15.4791 37.7067C15.3154 37.6362 15.139 37.5985 14.9604 37.5958H14.8959Z" fill="#5E60CE"/>
<path d="M7.16154 37.5958C6.97931 37.5863 6.797 37.613 6.62546 37.6743C6.45392 37.7356 6.29665 37.8302 6.16302 37.9526C6.02939 38.0749 5.92213 38.2225 5.84761 38.3865C5.77309 38.5505 5.73284 38.7275 5.72925 38.9072V43.067C5.72925 43.4297 5.87562 43.7777 6.13617 44.0342C6.39672 44.2907 6.7501 44.4348 7.11857 44.4348C7.48704 44.4348 7.84042 44.2907 8.10097 44.0342C8.36152 43.7777 8.50789 43.4297 8.50789 43.067V38.9636C8.51362 38.7877 8.48373 38.6126 8.41998 38.4482C8.35623 38.2839 8.25989 38.1337 8.13658 38.0064C8.01326 37.879 7.86544 37.7772 7.70173 37.7067C7.53802 37.6362 7.36169 37.5985 7.18302 37.5958H7.16154Z" fill="#5E60CE"/>
<path d="M10.9213 37.5958C10.7426 37.592 10.5649 37.623 10.3984 37.6869C10.2318 37.7507 10.0797 37.8463 9.95068 37.9681C9.82167 38.0899 9.71828 38.2355 9.64644 38.3966C9.5746 38.5577 9.5357 38.7312 9.53198 38.9072V44.6392C9.53198 45.002 9.67836 45.3499 9.93891 45.6064C10.1995 45.8629 10.5528 46.007 10.9213 46.007C11.2898 46.007 11.6432 45.8629 11.9037 45.6064C12.1643 45.3499 12.3106 45.002 12.3106 44.6392V38.9988C12.3164 38.823 12.2865 38.6478 12.2227 38.4835C12.159 38.3191 12.0626 38.1689 11.9393 38.0416C11.816 37.9143 11.6682 37.8124 11.5045 37.7419C11.3408 37.6714 11.1644 37.6337 10.9858 37.631L10.9213 37.5958Z" fill="#5E60CE"/>
</g>
<defs>
<clipPath id="clip0_12_482">
<rect width="22" height="36" fill="white" transform="translate(0 10)"/>
</clipPath>
</defs>
</svg>
